<svg width="235.17499999999998px" height="101.6px" xmlns="http://www.w3.org/2000/svg" viewBox="132.41250000000002 24.200000000000003 235.17499999999998 101.6" style="background: rgba(0, 0, 0, 0);" preserveAspectRatio="xMidYMid"><defs><filter id="editing-extrude-glow"><feFlood flood-color="#333333" result="flood-1"></feFlood><feMorphology operator="erode" radius="1" in="SourceAlpha" result="erode"></feMorphology><feComposite operator="in" in="flood-1" in2="erode" result="comp1"></feComposite><feConvolveMatrix order="0,0" divisor="1" in="comp1" result="convolve" kernelMatrix=""></feConvolveMatrix><feOffset dx="0" dy="0" in="convolve" result="extrude"></feOffset><feComposite operator="in" in="flood-1" in2="extrude" result="comp-extrude"></feComposite><feFlood flood-color="#ffffff" result="flood-2"></feFlood><feComposite operator="in" in="flood-2" in2="SourceAlpha" result="comp2"></feComposite><feMorphology operator="dilate" radius="1" in="comp2" result="dilate"></feMorphology><feOffset dx="0" dy="0" in="dilate" result="offset"></feOffset><feGaussianBlur in="offset" stdDeviation="5.8" result="blur"></feGaussianBlur><feComponentTransfer in="blur" result="shadow"><feFuncA type="linear" slope="0.8" intercept="-0.2"></feFuncA></feComponentTransfer><feMerge><feMergeNode in="shadow"></feMergeNode><feMergeNode in="comp-extrude"></feMergeNode><feMergeNode in="SourceGraphic"></feMergeNode></feMerge></filter></defs><g filter="url(#editing-extrude-glow)"><g transform="translate(170.66501379013062, 93.67500114440918)"><path d="M16.11 0L1.56 0L1.56-35.22L15.66-35.22L15.66-28.41L8.73-28.41L8.73-21.57L15.38-21.57L15.38-14.92L8.73-14.92L8.73-6.85L16.11-6.85L16.11 0ZM30.13-15.21L35.55 0L28.37 0L25.34-8.45L22.47 0L17.06 0L22.55-16.11L17.55-30.05L24.85-30.05L27.43-22.76L29.97-30.05L35.30-30.05L30.13-15.21ZM44.28-32.02L37.10-32.02L37.10-37.02L44.28-37.02L44.28-32.02ZM44.28 0L37.10 0L37.10-30.01L44.28-30.01L44.28 0ZM55.35 0.33L55.35 0.33Q46.45 0.33 46.45-8.69L46.45-8.69L46.49-11.07L53.67-11.07L53.71-7.54L53.71-7.54Q53.71-6.48 54.12-5.92L54.12-5.92L54.12-5.92Q54.53-5.37 55.47-5.37L55.47-5.37L55.47-5.37Q56.91-5.37 56.91-7.71L56.91-7.71L56.91-7.71Q56.91-9.43 56.23-10.41L56.23-10.41L56.23-10.41Q55.55-11.40 54.08-12.51L54.08-12.51L50.27-15.46L50.27-15.46Q48.30-16.97 47.44-18.59L47.44-18.59L47.44-18.59Q46.58-20.21 46.58-23.17L46.58-23.17L46.58-23.17Q46.58-25.46 47.79-27.08L47.79-27.08L47.79-27.08Q48.99-28.70 51.00-29.52L51.00-29.52L51.00-29.52Q53.01-30.34 55.47-30.34L55.47-30.34L55.47-30.34Q64.21-30.34 64.21-21.65L64.21-21.65L64.21-21.07L56.78-21.07L56.78-22.22L56.78-22.22Q56.78-23.29 56.44-24.05L56.44-24.05L56.44-24.05Q56.09-24.80 55.27-24.80L55.27-24.80L55.27-24.80Q54.53-24.80 54.14-24.37L54.14-24.37L54.14-24.37Q53.75-23.94 53.75-23.21L53.75-23.21L53.75-23.21Q53.75-21.57 55.02-20.66L55.02-20.66L59.45-17.43L59.45-17.43Q61.83-15.66 63.10-13.59L63.10-13.59L63.10-13.59Q64.37-11.52 64.37-8.36L64.37-8.36L64.37-8.36Q64.37-4.18 61.99-1.93L61.99-1.93L61.99-1.93Q59.61 0.33 55.35 0.33L55.35 0.33ZM72.78 0.33L72.78 0.33Q69.95 0.33 68.88-0.86L68.88-0.86L68.88-0.86Q67.81-2.05 67.81-4.67L67.81-4.67L67.81-23.41L65.81-23.41L65.81-28.86L67.81-28.86L67.81-35.22L74.78-35.22L74.78-28.86L76.83-28.86L76.83-23.41L74.78-23.41L74.78-6.56L74.78-6.56Q74.78-5.78 74.91-5.41L74.91-5.41L74.91-5.41Q75.03-5.04 75.56-5.04L75.56-5.04L75.56-5.04Q75.97-5.04 76.34-5.08L76.34-5.08L76.34-5.08Q76.71-5.13 76.83-5.13L76.83-5.13L76.83-0.21L76.83-0.21Q76.22-0.04 75.05 0.14L75.05 0.14L75.05 0.14Q73.88 0.33 72.78 0.33L72.78 0.33ZM87.49 0.33L87.49 0.33Q82.86 0.33 80.85-2.21L80.85-2.21L80.85-2.21Q78.84-4.76 78.84-9.80L78.84-9.80L78.84-21.85L78.84-21.85Q78.84-25.99 81.22-28.17L81.22-28.17L81.22-28.17Q83.60-30.34 87.86-30.34L87.86-30.34L87.86-30.34Q96.51-30.34 96.51-21.85L96.51-21.85L96.51-19.68L96.51-19.68Q96.51-16.40 96.43-14.35L96.43-14.35L86.02-14.35L86.02-8.53L86.02-8.53Q86.02-6.97 86.35-6.09L86.35-6.09L86.35-6.09Q86.67-5.21 87.74-5.21L87.74-5.21L87.74-5.21Q88.56-5.21 88.91-5.70L88.91-5.70L88.91-5.70Q89.26-6.19 89.32-6.83L89.32-6.83L89.32-6.83Q89.38-7.46 89.38-8.69L89.38-8.69L89.38-11.60L96.51-11.60L96.51-9.88L96.51-9.88Q96.51-4.63 94.48-2.15L94.48-2.15L94.48-2.15Q92.45 0.33 87.49 0.33L87.49 0.33ZM85.98-17.92L89.38-17.92L89.38-21.77L89.38-21.77Q89.38-25.01 87.78-25.01L87.78-25.01L87.78-25.01Q85.98-25.01 85.98-21.77L85.98-21.77L85.98-17.92ZM99.10 0L99.10-30.01L106.27-30.01L106.27-26.20L106.27-26.20Q106.72-28.04 107.83-29.19L107.83-29.19L107.83-29.19Q108.94-30.34 110.78-30.34L110.78-30.34L110.78-30.34Q113.82-30.34 115.27-28.47L115.27-28.47L115.27-28.47Q116.73-26.61 116.73-23.17L116.73-23.17L116.73 0L109.67 0L109.67-22.43L109.67-22.43Q109.67-23.41 109.29-24.11L109.29-24.11L109.29-24.11Q108.90-24.80 108.08-24.80L108.08-24.80L108.08-24.80Q106.97-24.80 106.62-23.80L106.62-23.80L106.62-23.80Q106.27-22.80 106.27-21.12L106.27-21.12L106.27 0L99.10 0ZM128.58 0.33L128.58 0.33Q123.66 0.33 121.48-2.17L121.48-2.17L121.48-2.17Q119.31-4.67 119.31-9.84L119.31-9.84L119.31-19.11L119.31-19.11Q119.31-23.00 120.15-25.44L120.15-25.44L120.15-25.44Q120.99-27.88 122.98-29.11L122.98-29.11L122.98-29.11Q124.97-30.34 128.49-30.34L128.49-30.34L128.49-30.34Q132.35-30.34 134.77-28.33L134.77-28.33L134.77-28.33Q137.19-26.32 137.19-22.71L137.19-22.71L137.19-18.12L129.89-18.12L129.89-22.35L129.89-22.35Q129.89-23.53 129.56-24.17L129.56-24.17L129.56-24.17Q129.23-24.80 128.29-24.80L128.29-24.80L128.29-24.80Q126.53-24.80 126.53-22.30L126.53-22.30L126.53-7.75L126.53-7.75Q126.53-6.72 126.96-6.01L126.96-6.01L126.96-6.01Q127.39-5.29 128.25-5.29L128.25-5.29L128.25-5.29Q129.11-5.29 129.54-5.99L129.54-5.99L129.54-5.99Q129.97-6.68 129.93-7.79L129.93-7.79L129.89-12.83L137.19-12.83L137.19-7.58L137.19-7.58Q137.19-3.90 134.79-1.78L134.79-1.78L134.79-1.78Q132.39 0.33 128.58 0.33L128.58 0.33ZM148.09 0.33L148.09 0.33Q143.46 0.33 141.45-2.21L141.45-2.21L141.45-2.21Q139.44-4.76 139.44-9.80L139.44-9.80L139.44-21.85L139.44-21.85Q139.44-25.99 141.82-28.17L141.82-28.17L141.82-28.17Q144.20-30.34 148.46-30.34L148.46-30.34L148.46-30.34Q157.11-30.34 157.11-21.85L157.11-21.85L157.11-19.68L157.11-19.68Q157.11-16.40 157.03-14.35L157.03-14.35L146.62-14.35L146.62-8.53L146.62-8.53Q146.62-6.97 146.94-6.09L146.94-6.09L146.94-6.09Q147.27-5.21 148.34-5.21L148.34-5.21L148.34-5.21Q149.16-5.21 149.51-5.70L149.51-5.70L149.51-5.70Q149.86-6.19 149.92-6.83L149.92-6.83L149.92-6.83Q149.98-7.46 149.98-8.69L149.98-8.69L149.98-11.60L157.11-11.60L157.11-9.88L157.11-9.88Q157.11-4.63 155.08-2.15L155.08-2.15L155.08-2.15Q153.05 0.33 148.09 0.33L148.09 0.33ZM146.58-17.92L149.98-17.92L149.98-21.77L149.98-21.77Q149.98-25.01 148.38-25.01L148.38-25.01L148.38-25.01Q146.58-25.01 146.58-21.77L146.58-21.77L146.58-17.92Z" fill="#eb6c6c"></path></g></g><style>text {
  font-size: 64px;
  font-family: Arial Black;
  dominant-baseline: central;
  text-anchor: middle;
}</style></svg>